<?xml version="1.0" encoding="UTF-8"?>
<!DOCTYPE svg PUBLIC "-//W3C//DTD SVG 1.1//EN" "http://www.w3.org/Graphics/SVG/1.1/DTD/svg11.dtd">
<svg xmlns="http://www.w3.org/2000/svg" version="1.1" width="1024px" height="1024px" style="shape-rendering:geometricPrecision; text-rendering:geometricPrecision; image-rendering:optimizeQuality; fill-rule:evenodd; clip-rule:evenodd" xmlns:xlink="http://www.w3.org/1999/xlink">
<g><path style="opacity:1" fill="#ffffff" d="M 660.5,119.5 C 659.838,171.178 660.504,222.511 662.5,273.5C 679.766,278.096 696.433,284.596 712.5,293C 713.5,293.667 714.5,293.667 715.5,293C 744.044,252.079 772.71,211.246 801.5,170.5C 803.768,169.456 806.101,169.289 808.5,170C 814.753,174.043 820.92,178.21 827,182.5C 827.667,184.5 827.667,186.5 827,188.5C 799.913,227.675 772.58,266.675 745,305.5C 743.126,307.569 742.126,309.902 742,312.5C 751,320.167 759.333,328.5 767,337.5C 774.42,346.692 781.587,356.025 788.5,365.5C 831.447,344.194 874.113,322.694 916.5,301C 918.769,300.242 920.936,300.409 923,301.5C 927.504,309.008 931.337,316.841 934.5,325C 934.357,327.151 933.357,328.818 931.5,330C 888.704,351.147 846.204,372.647 804,394.5C 808.242,408.245 811.908,422.245 815,436.5C 815.593,442.251 816.426,447.917 817.5,453.5C 817.5,455.5 817.5,457.5 817.5,459.5C 867.833,459.5 918.167,459.5 968.5,459.5C 970.75,469.42 971.083,479.42 969.5,489.5C 968.942,490.79 967.942,491.623 966.5,492C 916.834,492.5 867.168,492.667 817.5,492.5C 817.5,493.833 817.5,495.167 817.5,496.5C 814.557,517.375 809.391,537.708 802,557.5C 844.849,580.172 887.682,602.672 930.5,625C 932.584,626.501 933.917,628.501 934.5,631C 931.171,639.335 926.838,647.002 921.5,654C 919.5,654.667 917.5,654.667 915.5,654C 873.063,631.365 830.563,608.865 788,586.5C 780.452,595.893 773.119,605.559 766,615.5C 758.322,624.344 750.155,632.678 741.5,640.5C 769.333,679.5 797.167,718.5 825,757.5C 825.667,759.5 825.667,761.5 825,763.5C 818.516,769.332 811.516,774.332 804,778.5C 801.594,778.297 799.594,777.297 798,775.5C 769.792,736.246 741.959,696.746 714.5,657C 717.815,645.6 720.649,634.1 723,622.5C 728.858,588.07 735.191,553.737 742,519.5C 744.882,491.201 747.382,462.867 749.5,434.5C 750.053,412.715 739.386,401.048 717.5,399.5C 699.055,400.973 684.555,409.306 674,424.5C 665.949,436.969 659.616,450.302 655,464.5C 651.354,477.085 648.02,489.752 645,502.5C 644.517,501.552 644.351,500.552 644.5,499.5C 644.667,413.833 644.5,328.166 644,242.5C 643.809,240.292 643.309,238.292 642.5,236.5C 641.99,227.171 638.99,218.837 633.5,211.5C 632.261,208.411 630.761,205.411 629,202.5C 628.5,175.169 628.333,147.835 628.5,120.5C 629.854,118.304 631.854,116.804 634.5,116C 641.833,115.333 649.167,115.333 656.5,116C 657.705,117.376 659.038,118.542 660.5,119.5 Z"/></g>
<g><path style="opacity:1" fill="#ffffff" d="M 370.5,785.5 C 370.83,801.009 370.496,816.342 369.5,831.5C 264.118,800.287 187.284,735.287 139,636.5C 99.7253,543.999 97.392,450.333 132,355.5C 172.657,256.839 243.157,189.672 343.5,154C 367.751,146.345 392.584,141.845 418,140.5C 422.194,140.31 426.194,140.977 430,142.5C 330.477,186.06 265.477,260.393 235,365.5C 203.186,500.017 236.186,615.684 334,712.5C 342.844,733.19 353.51,752.856 366,771.5C 368.044,776.127 369.544,780.794 370.5,785.5 Z"/></g>
<g><path style="opacity:1" fill="#ffffff" d="M 548.5,176.5 C 548.523,178.927 549.023,181.26 550,183.5C 550.5,271.833 550.667,360.166 550.5,448.5C 553.391,454.851 557.724,456.518 563.5,453.5C 565.727,452.599 566.727,450.933 566.5,448.5C 567.333,376.668 567.833,304.668 568,232.5C 576.348,210.245 591.515,203.745 613.5,213C 620.785,217.96 625.285,224.793 627,233.5C 627.333,334.167 627.667,434.833 628,535.5C 628.055,544.601 628.722,553.601 630,562.5C 631.99,565.722 634.49,566.222 637.5,564C 645.661,550.864 651.495,536.697 655,521.5C 660.043,497.703 666.71,474.37 675,451.5C 677.73,445.707 680.73,440.04 684,434.5C 691.076,424.419 700.576,417.919 712.5,415C 719.831,413.999 726.498,415.666 732.5,420C 733.701,420.903 734.535,422.069 735,423.5C 735.667,429.167 735.667,434.833 735,440.5C 731.907,468.796 729.241,497.129 727,525.5C 718.03,566.712 709.697,608.045 702,649.5C 692.89,672.189 681.89,693.856 669,714.5C 658.722,729.778 648.055,744.778 637,759.5C 635.05,763.732 633.383,768.066 632,772.5C 630.761,807.482 630.094,842.482 630,877.5C 629.535,878.931 628.701,880.097 627.5,881C 600.337,892.494 572.004,899.494 542.5,902C 493.257,906.547 445.257,900.88 398.5,885C 393.07,883.633 388.737,880.799 385.5,876.5C 385.812,844.135 385.478,811.802 384.5,779.5C 382.833,773.333 380.666,767.333 378,761.5C 356.164,732.808 342.831,700.475 338,664.5C 336.353,648.379 335.186,632.379 334.5,616.5C 334.5,517.167 334.5,417.833 334.5,318.5C 336.758,302.409 345.925,293.075 362,290.5C 376.997,291.834 385.997,299.834 389,314.5C 389.333,365.5 389.667,416.5 390,467.5C 394.57,474.95 399.57,475.284 405,468.5C 405.017,388.136 405.684,307.803 407,227.5C 414.969,207.597 429.136,200.764 449.5,207C 459.593,212.246 465.593,220.413 467.5,231.5C 467.333,303.834 467.5,376.167 468,448.5C 470.22,452.692 473.72,454.359 478.5,453.5C 480.504,452.327 482.004,450.66 483,448.5C 483.013,360.131 483.68,271.798 485,183.5C 491.683,161.74 506.183,153.24 528.5,158C 537.298,161.969 543.965,168.135 548.5,176.5 Z"/></g>
</svg>
